<svg width="53" height="53" viewBox="0 0 53 53" fill="none" xmlns="http://www.w3.org/2000/svg">
<path d="M21.25 10.75H31.75C31.75 9.35761 31.1969 8.02225 30.2123 7.03769C29.2277 6.05312 27.8924 5.5 26.5 5.5C25.1076 5.5 23.7723 6.05312 22.7877 7.03769C21.8031 8.02225 21.25 9.35761 21.25 10.75ZM16 10.75C16 7.96523 17.1062 5.29451 19.0754 3.32538C21.0445 1.35625 23.7152 0.25 26.5 0.25C29.2848 0.25 31.9555 1.35625 33.9246 3.32538C35.8938 5.29451 37 7.96523 37 10.75H50.125C50.8212 10.75 51.4889 11.0266 51.9812 11.5188C52.4734 12.0111 52.75 12.6788 52.75 13.375C52.75 14.0712 52.4734 14.7389 51.9812 15.2312C51.4889 15.7234 50.8212 16 50.125 16H47.8097L45.484 43.1425C45.2604 45.7635 44.0612 48.205 42.1236 49.9842C40.186 51.7633 37.6512 52.7503 35.0208 52.75H17.9792C15.3488 52.7503 12.814 51.7633 10.8764 49.9842C8.93881 48.205 7.73959 45.7635 7.516 43.1425L5.19025 16H2.875C2.17881 16 1.51113 15.7234 1.01884 15.2312C0.526562 14.7389 0.25 14.0712 0.25 13.375C0.25 12.6788 0.526562 12.0111 1.01884 11.5188C1.51113 11.0266 2.17881 10.75 2.875 10.75H16ZM34.375 26.5C34.375 25.8038 34.0984 25.1361 33.6062 24.6438C33.1139 24.1516 32.4462 23.875 31.75 23.875C31.0538 23.875 30.3861 24.1516 29.8938 24.6438C29.4016 25.1361 29.125 25.8038 29.125 26.5V37C29.125 37.6962 29.4016 38.3639 29.8938 38.8562C30.3861 39.3484 31.0538 39.625 31.75 39.625C32.4462 39.625 33.1139 39.3484 33.6062 38.8562C34.0984 38.3639 34.375 37.6962 34.375 37V26.5ZM21.25 23.875C20.5538 23.875 19.8861 24.1516 19.3938 24.6438C18.9016 25.1361 18.625 25.8038 18.625 26.5V37C18.625 37.6962 18.9016 38.3639 19.3938 38.8562C19.8861 39.3484 20.5538 39.625 21.25 39.625C21.9462 39.625 22.6139 39.3484 23.1062 38.8562C23.5984 38.3639 23.875 37.6962 23.875 37V26.5C23.875 25.8038 23.5984 25.1361 23.1062 24.6438C22.6139 24.1516 21.9462 23.875 21.25 23.875Z" fill="#E72D38"/>
</svg>
