<svg width="14" height="15" viewBox="0 0 14 15" fill="none" xmlns="http://www.w3.org/2000/svg">
<path d="M2.40625 12.75C2.00014 12.75 1.61066 12.5887 1.32349 12.3015C1.03633 12.0143 0.875 11.6249 0.875 11.2188V9.03125C0.875 8.8572 0.94414 8.69028 1.06721 8.56721C1.19028 8.44414 1.3572 8.375 1.53125 8.375C1.7053 8.375 1.87222 8.44414 1.99529 8.56721C2.11836 8.69028 2.1875 8.8572 2.1875 9.03125V11.2188C2.1875 11.3395 2.2855 11.4375 2.40625 11.4375H11.5938C11.6518 11.4375 11.7074 11.4145 11.7484 11.3734C11.7895 11.3324 11.8125 11.2768 11.8125 11.2188V9.03125C11.8125 8.8572 11.8816 8.69028 12.0047 8.56721C12.1278 8.44414 12.2947 8.375 12.4688 8.375C12.6428 8.375 12.8097 8.44414 12.9328 8.56721C13.0559 8.69028 13.125 8.8572 13.125 9.03125V11.2188C13.125 11.6249 12.9637 12.0143 12.6765 12.3015C12.3893 12.5887 11.9999 12.75 11.5938 12.75H2.40625Z" fill="white"/>
<path d="M6.34371 7.22788V2.25C6.34371 2.07595 6.41285 1.90903 6.53592 1.78596C6.65899 1.66289 6.82591 1.59375 6.99996 1.59375C7.17401 1.59375 7.34093 1.66289 7.464 1.78596C7.58707 1.90903 7.65621 2.07595 7.65621 2.25V7.22788L9.37996 5.505C9.44086 5.4441 9.51316 5.39579 9.59273 5.36283C9.6723 5.32987 9.75758 5.31291 9.84371 5.31291C9.92983 5.31291 10.0151 5.32987 10.0947 5.36283C10.1743 5.39579 10.2466 5.4441 10.3075 5.505C10.3684 5.5659 10.4167 5.6382 10.4496 5.71777C10.4826 5.79734 10.4995 5.88262 10.4995 5.96875C10.4995 6.05488 10.4826 6.14016 10.4496 6.21973C10.4167 6.2993 10.3684 6.3716 10.3075 6.4325L7.46371 9.27625C7.40284 9.33721 7.33055 9.38556 7.25097 9.41856C7.1714 9.45155 7.0861 9.46853 6.99996 9.46853C6.91381 9.46853 6.82852 9.45155 6.74894 9.41856C6.66937 9.38556 6.59708 9.33721 6.53621 9.27625L3.69246 6.4325C3.63156 6.3716 3.58325 6.2993 3.55029 6.21973C3.51733 6.14016 3.50037 6.05488 3.50037 5.96875C3.50037 5.88262 3.51733 5.79734 3.55029 5.71777C3.58325 5.6382 3.63156 5.5659 3.69246 5.505C3.75336 5.4441 3.82566 5.39579 3.90523 5.36283C3.9848 5.32987 4.07008 5.31291 4.15621 5.31291C4.24233 5.31291 4.32762 5.32987 4.40719 5.36283C4.48676 5.39579 4.55906 5.4441 4.61996 5.505L6.34371 7.22788Z" fill="white"/>
</svg>
