<svg width="77" height="88" viewBox="0 0 77 88" fill="none" xmlns="http://www.w3.org/2000/svg">
<path d="M0 37.125C0 25.7297 9.22969 16.5 20.625 16.5H22C25.0422 16.5 27.5 18.9578 27.5 22C27.5 25.0422 25.0422 27.5 22 27.5H20.625C15.3141 27.5 11 31.8141 11 37.125V38.5H22C28.0672 38.5 33 43.4328 33 49.5V60.5C33 66.5672 28.0672 71.5 22 71.5H11C4.93281 71.5 0 66.5672 0 60.5V37.125ZM44 37.125C44 25.7297 53.2297 16.5 64.625 16.5H66C69.0422 16.5 71.5 18.9578 71.5 22C71.5 25.0422 69.0422 27.5 66 27.5H64.625C59.3141 27.5 55 31.8141 55 37.125V38.5H66C72.0672 38.5 77 43.4328 77 49.5V60.5C77 66.5672 72.0672 71.5 66 71.5H55C48.9328 71.5 44 66.5672 44 60.5V37.125Z" fill="white"/>
</svg>
