<svg width="14" height="14" viewBox="0 0 14 14" fill="none" xmlns="http://www.w3.org/2000/svg">
<g clip-path="url(#clip0_5953_16341)">
<circle cx="7" cy="7" r="5" fill="white"/>
<path d="M13.4163 7L11.993 5.3725L12.1913 3.22L10.0855 2.74167L8.98301 0.875L6.99967 1.72667L5.01634 0.875L3.91384 2.73583L1.80801 3.20833L2.00634 5.36667L0.583008 7L2.00634 8.6275L1.80801 10.7858L3.91384 11.2642L5.01634 13.125L6.99967 12.2675L8.98301 13.1192L10.0855 11.2583L12.1913 10.78L11.993 8.6275L13.4163 7ZM5.47134 9.33917L4.08301 7.93917C4.02893 7.8852 3.98603 7.8211 3.95675 7.75053C3.92748 7.67996 3.91241 7.60431 3.91241 7.52792C3.91241 7.45152 3.92748 7.37587 3.95675 7.3053C3.98603 7.23473 4.02893 7.17063 4.08301 7.11667L4.12384 7.07583C4.35134 6.84833 4.72467 6.84833 4.95217 7.07583L5.89134 8.02083L8.89551 5.01083C9.12301 4.78333 9.49634 4.78333 9.72384 5.01083L9.76467 5.05167C9.99217 5.27917 9.99217 5.64667 9.76467 5.87417L6.31134 9.33917C6.07217 9.56667 5.70467 9.56667 5.47134 9.33917Z" fill="#147BFF"/>
</g>
<defs>
<clipPath id="clip0_5953_16341">
<rect width="14" height="14" fill="white"/>
</clipPath>
</defs>
</svg>
