<svg width="255" height="217" viewBox="0 0 255 217" fill="none" xmlns="http://www.w3.org/2000/svg">
<path d="M235.094 0.90625H19.9062C14.718 0.90625 9.74215 2.96729 6.07347 6.63597C2.40479 10.3047 0.34375 15.2805 0.34375 20.4688V196.531C0.34375 201.72 2.40479 206.695 6.07347 210.364C9.74215 214.033 14.718 216.094 19.9062 216.094H235.094C240.282 216.094 245.258 214.033 248.927 210.364C252.595 206.695 254.656 201.72 254.656 196.531V20.4688C254.656 15.2805 252.595 10.3047 248.927 6.63597C245.258 2.96729 240.282 0.90625 235.094 0.90625ZM235.094 20.4688V146.097L203.219 114.234C201.402 112.417 199.246 110.976 196.872 109.992C194.498 109.009 191.954 108.503 189.385 108.503C186.815 108.503 184.271 109.009 181.897 109.992C179.524 110.976 177.367 112.417 175.55 114.234L151.097 138.687L97.3004 84.8905C93.6321 81.2246 88.6582 79.1653 83.4721 79.1653C78.2861 79.1653 73.3122 81.2246 69.6439 84.8905L19.9062 134.628V20.4688H235.094ZM19.9062 162.297L83.4844 98.7188L181.297 196.531H19.9062V162.297ZM235.094 196.531H208.966L164.95 152.516L189.403 128.062L235.094 173.765V196.531ZM147.062 74.2656C147.062 71.3638 147.923 68.5272 149.535 66.1144C151.147 63.7016 153.439 61.8211 156.12 60.7106C158.801 59.6001 161.751 59.3095 164.597 59.8757C167.443 60.4418 170.057 61.8391 172.109 63.891C174.161 65.9429 175.558 68.5572 176.124 71.4033C176.69 74.2493 176.4 77.1994 175.289 79.8803C174.179 82.5612 172.298 84.8527 169.886 86.4648C167.473 88.077 164.636 88.9375 161.734 88.9375C157.843 88.9375 154.111 87.3917 151.36 84.6402C148.608 81.8887 147.062 78.1568 147.062 74.2656Z" fill="#CFD4DF"/>
</svg>
