<svg width="17" height="17" viewBox="0 0 17 17" fill="none" xmlns="http://www.w3.org/2000/svg">
<g clip-path="url(#clip0_11_7065)">
<path d="M4.31083 16.9398C3.65329 16.9325 3.00192 16.8119 2.38533 16.5833C1.93507 16.4169 1.5277 16.1519 1.193 15.8078C0.847961 15.4738 0.582614 15.0663 0.416667 14.6157C0.188292 13.9991 0.0678637 13.3478 0.0606667 12.6903C0.0101667 11.5973 0 11.2695 0 8.5C0 5.7305 0.0111667 5.40383 0.0601667 4.31C0.0682371 3.6528 0.188814 3.00183 0.416667 2.38533C0.583422 1.935 0.848393 1.52746 1.19233 1.19233C1.52662 0.847605 1.93418 0.582504 2.38483 0.416667C3.00142 0.188103 3.65279 0.0675047 4.31033 0.0601667C5.40367 0.0101667 5.732 0 8.5 0C11.268 0 11.5962 0.0111667 12.69 0.0601667C13.3474 0.0681801 13.9985 0.188758 14.6152 0.416667C15.0656 0.582723 15.4731 0.847731 15.8075 1.19217C16.152 1.52671 16.4172 1.93427 16.5833 2.38483C16.812 3.00141 16.9326 3.65278 16.94 4.31033C16.99 5.40417 17.0002 5.73167 17.0002 8.50033C17.0002 11.269 16.99 11.5965 16.94 12.6903C16.9321 13.3478 16.8114 13.999 16.5833 14.6157C16.4108 15.0629 16.1465 15.469 15.8076 15.8079C15.4686 16.1468 15.0624 16.4109 14.6152 16.5833C13.9986 16.812 13.3472 16.9326 12.6897 16.94C11.5968 16.99 11.2683 17.0002 8.49967 17.0002C5.731 17.0002 5.4035 16.9905 4.31067 16.94" fill="url(#paint0_radial_11_7065)"/>
<path d="M4.31083 16.9398C3.65329 16.9325 3.00192 16.8119 2.38533 16.5833C1.93507 16.4169 1.5277 16.1519 1.193 15.8078C0.847961 15.4738 0.582614 15.0663 0.416667 14.6157C0.188292 13.9991 0.0678637 13.3478 0.0606667 12.6903C0.0101667 11.5973 0 11.2695 0 8.5C0 5.7305 0.0111667 5.40383 0.0601667 4.31C0.0682371 3.6528 0.188814 3.00183 0.416667 2.38533C0.583422 1.935 0.848393 1.52746 1.19233 1.19233C1.52662 0.847605 1.93418 0.582504 2.38483 0.416667C3.00142 0.188103 3.65279 0.0675047 4.31033 0.0601667C5.40367 0.0101667 5.732 0 8.5 0C11.268 0 11.5962 0.0111667 12.69 0.0601667C13.3474 0.0681801 13.9985 0.188758 14.6152 0.416667C15.0656 0.582723 15.4731 0.847731 15.8075 1.19217C16.152 1.52671 16.4172 1.93427 16.5833 2.38483C16.812 3.00141 16.9326 3.65278 16.94 4.31033C16.99 5.40417 17.0002 5.73167 17.0002 8.50033C17.0002 11.269 16.99 11.5965 16.94 12.6903C16.9321 13.3478 16.8114 13.999 16.5833 14.6157C16.4108 15.0629 16.1465 15.469 15.8076 15.8079C15.4686 16.1468 15.0624 16.4109 14.6152 16.5833C13.9986 16.812 13.3472 16.9326 12.6897 16.94C11.5968 16.99 11.2683 17.0002 8.49967 17.0002C5.731 17.0002 5.4035 16.9905 4.31067 16.94" fill="url(#paint1_radial_11_7065)"/>
<path d="M6.41282 8.53684C6.41285 8.12047 6.53635 7.71347 6.76771 7.36729C6.99906 7.02111 7.32787 6.75131 7.71256 6.59201C8.09725 6.43271 8.52054 6.39107 8.92891 6.47234C9.33727 6.55361 9.71235 6.75416 10.0067 7.04861C10.3011 7.34306 10.5016 7.7182 10.5827 8.12658C10.6639 8.53496 10.6222 8.95824 10.4628 9.3429C10.3034 9.72755 10.0335 10.0563 9.68729 10.2876C9.34105 10.5188 8.93402 10.6422 8.51765 10.6422C7.95935 10.6421 7.42395 10.4202 7.02923 10.0254C6.6345 9.63059 6.41277 9.09514 6.41282 8.53684ZM5.27465 8.53684C5.27465 9.17825 5.46485 9.80525 5.82119 10.3386C6.17754 10.8719 6.68403 11.2875 7.27661 11.533C7.86919 11.7784 8.52125 11.8427 9.15033 11.7175C9.77941 11.5924 10.3573 11.2835 10.8108 10.83C11.2643 10.3764 11.5732 9.7986 11.6983 9.16952C11.8235 8.54044 11.7592 7.88838 11.5138 7.2958C11.2683 6.70322 10.8527 6.19673 10.3194 5.84039C9.78605 5.48404 9.15905 5.29384 8.51765 5.29384C8.09177 5.29382 7.67005 5.37769 7.27658 5.54066C6.88311 5.70363 6.5256 5.9425 6.22445 6.24365C5.92331 6.54479 5.68443 6.90231 5.52146 7.29578C5.3585 7.68924 5.27463 8.11096 5.27465 8.53684ZM11.1312 5.16534C11.1311 5.31523 11.1755 5.46177 11.2587 5.58643C11.3419 5.71109 11.4602 5.80828 11.5987 5.8657C11.7371 5.92312 11.8895 5.93819 12.0365 5.90902C12.1835 5.87984 12.3186 5.80772 12.4246 5.70178C12.5306 5.59584 12.6029 5.46085 12.6322 5.31385C12.6615 5.16686 12.6466 5.01448 12.5893 4.87598C12.532 4.73748 12.4349 4.61908 12.3103 4.53575C12.1857 4.45242 12.0392 4.40791 11.8893 4.40785C11.6884 4.40794 11.4958 4.48776 11.3537 4.62979C11.2116 4.77182 11.1317 4.96444 11.1315 5.16534M5.96648 13.6777C5.566 13.6733 5.16926 13.6 4.79365 13.461C4.52124 13.356 4.27384 13.1951 4.06737 12.9888C3.86089 12.7824 3.69992 12.535 3.59481 12.2627C3.45578 11.8871 3.38248 11.4903 3.37815 11.0898C3.34748 10.4242 3.34148 10.2242 3.34148 8.53768C3.34148 6.85118 3.34815 6.65168 3.37815 5.98535C3.38301 5.58491 3.45628 5.18825 3.59481 4.81251C3.6998 4.54002 3.86072 4.29256 4.06721 4.08607C4.2737 3.87959 4.52116 3.71867 4.79365 3.61368C5.16925 3.47464 5.566 3.40135 5.96648 3.39701C6.63215 3.36635 6.83215 3.36035 8.51798 3.36035C10.2038 3.36035 10.404 3.36685 11.0703 3.39718C11.4707 3.40204 11.8674 3.47532 12.2431 3.61385C12.5156 3.71884 12.7631 3.87977 12.9696 4.08625C13.1761 4.29274 13.337 4.54019 13.442 4.81268C13.581 5.18828 13.6543 5.58503 13.6586 5.98551C13.6893 6.65218 13.6953 6.85118 13.6953 8.53785C13.6953 10.2245 13.6891 10.4238 13.6586 11.0902C13.654 11.4906 13.5807 11.8873 13.442 12.263C13.3369 12.5354 13.1759 12.7827 12.9694 12.9891C12.763 13.1955 12.5156 13.3563 12.2431 13.4613C11.8675 13.6004 11.4708 13.6737 11.0703 13.678C10.4046 13.7087 10.2046 13.7147 8.51798 13.7147C6.83131 13.7147 6.63198 13.7085 5.96648 13.678M5.91415 2.25985C5.39012 2.27015 4.87164 2.36933 4.38081 2.55318C3.96123 2.71541 3.58018 2.96352 3.26209 3.28162C2.94399 3.59971 2.69587 3.98076 2.53365 4.40034C2.34983 4.89118 2.25064 5.40965 2.24032 5.93368C2.20915 6.60701 2.20215 6.82234 2.20215 8.53751C2.20215 10.2527 2.20932 10.4678 2.24032 11.1413C2.25064 11.6654 2.34982 12.1838 2.53365 12.6747C2.69588 13.0943 2.944 13.4753 3.2621 13.7934C3.58019 14.1115 3.96124 14.3596 4.38081 14.5218C4.87167 14.7056 5.39013 14.8048 5.91415 14.8152C6.58782 14.8458 6.80281 14.8533 8.51798 14.8533C10.2331 14.8533 10.4483 14.8462 11.1218 14.8152C11.6458 14.8048 12.1643 14.7056 12.6551 14.5218C13.0747 14.3596 13.4558 14.1115 13.7739 13.7934C14.092 13.4753 14.3401 13.0943 14.5023 12.6747C14.6864 12.1839 14.7856 11.6654 14.7957 11.1413C14.8263 10.4675 14.8333 10.2527 14.8333 8.53751C14.8333 6.82234 14.8262 6.60718 14.7957 5.93368C14.7853 5.40965 14.6862 4.89117 14.5023 4.40034C14.3401 3.98084 14.092 3.59985 13.774 3.28176C13.456 2.96368 13.0751 2.71552 12.6557 2.55318C12.1649 2.36921 11.6464 2.27003 11.1223 2.25985C10.4488 2.22901 10.2336 2.22168 8.51882 2.22168C6.80398 2.22168 6.58831 2.22885 5.91448 2.25985" fill="white"/>
</g>
<defs>
<radialGradient id="paint0_radial_11_7065" cx="0" cy="0" r="1" gradientUnits="userSpaceOnUse" gradientTransform="translate(1.10017 16.6277) scale(21.5837)">
<stop offset="0.09" stop-color="#FA8F21"/>
<stop offset="0.78" stop-color="#D82D7E"/>
</radialGradient>
<radialGradient id="paint1_radial_11_7065" cx="0" cy="0" r="1" gradientUnits="userSpaceOnUse" gradientTransform="translate(11.7753 16.0817) scale(18.9938)">
<stop offset="0.64" stop-color="#8C3AAA" stop-opacity="0"/>
<stop offset="1" stop-color="#8C3AAA"/>
</radialGradient>
<clipPath id="clip0_11_7065">
<rect width="17" height="17" fill="white"/>
</clipPath>
</defs>
</svg>
