<svg width="15" height="15" viewBox="0 0 15 15" fill="none" xmlns="http://www.w3.org/2000/svg">
<path d="M0 1.07449C0 0.481406 0.496523 0 1.10859 0H13.8914C14.5037 0 15 0.481406 15 1.07449V13.9257C15 14.5189 14.5037 15 13.8914 15H1.10859C0.496582 15 0 14.519 0 13.9259V1.07432V1.07449Z" fill="#0A66C2"/>
<path d="M4.55831 12.5536V5.80052H2.3137V12.5536H4.55854H4.55831ZM3.43647 4.87866C4.21905 4.87866 4.70626 4.36011 4.70626 3.71206C4.69161 3.04925 4.21905 2.54517 3.45136 2.54517C2.68313 2.54517 2.1814 3.04925 2.1814 3.712C2.1814 4.36005 2.66843 4.8786 3.42177 4.8786H3.4363L3.43647 4.87866ZM5.80073 12.5536H8.04517V8.78276C8.04517 8.5812 8.05981 8.37911 8.11911 8.23515C8.2813 7.83173 8.65062 7.41413 9.27083 7.41413C10.0828 7.41413 10.4078 8.03335 10.4078 8.94126V12.5536H12.6522V8.68157C12.6522 6.60741 11.545 5.6422 10.0683 5.6422C8.85757 5.6422 8.32583 6.3189 8.0304 6.77979H8.04534V5.80075H5.80085C5.83015 6.43427 5.80067 12.5538 5.80067 12.5538L5.80073 12.5536Z" fill="white"/>
</svg>
