<svg width="32" height="32" viewBox="0 0 32 32" fill="none" xmlns="http://www.w3.org/2000/svg">
<g filter="url(#filter0_b_49_17003)">
<rect width="32" height="32" rx="10" fill="#FDEAEB"/>
</g>
<path fill-rule="evenodd" clip-rule="evenodd" d="M16 24.25C16 24.25 22.75 19.75 22.75 14.5C22.75 12.7098 22.0388 10.9929 20.773 9.72703C19.5071 8.46116 17.7902 7.75 16 7.75C14.2098 7.75 12.4929 8.46116 11.227 9.72703C9.96116 10.9929 9.25 12.7098 9.25 14.5C9.25 19.75 16 24.25 16 24.25ZM18.25 14.5C18.25 15.7426 17.2426 16.75 16 16.75C14.7574 16.75 13.75 15.7426 13.75 14.5C13.75 13.2574 14.7574 12.25 16 12.25C17.2426 12.25 18.25 13.2574 18.25 14.5Z" fill="#E72D38"/>
<defs>
<filter id="filter0_b_49_17003" x="-6" y="-6" width="44" height="44" filterUnits="userSpaceOnUse" color-interpolation-filters="sRGB">
<feFlood flood-opacity="0" result="BackgroundImageFix"/>
<feGaussianBlur in="BackgroundImageFix" stdDeviation="3"/>
<feComposite in2="SourceAlpha" operator="in" result="effect1_backgroundBlur_49_17003"/>
<feBlend mode="normal" in="SourceGraphic" in2="effect1_backgroundBlur_49_17003" result="shape"/>
</filter>
</defs>
</svg>
