<svg width="15" height="18" viewBox="0 0 15 18" fill="none" xmlns="http://www.w3.org/2000/svg">
<path d="M13.5 7.25C13.5 12.1111 7.25 16.2778 7.25 16.2778C7.25 16.2778 1 12.1111 1 7.25C1 5.5924 1.65848 4.00268 2.83058 2.83058C4.00268 1.65848 5.5924 1 7.25 1C8.9076 1 10.4973 1.65848 11.6694 2.83058C12.8415 4.00268 13.5 5.5924 13.5 7.25Z" stroke="white" stroke-width="2" stroke-linecap="round" stroke-linejoin="round"/>
<path d="M7.2513 9.33366C8.4019 9.33366 9.33464 8.40092 9.33464 7.25033C9.33464 6.09973 8.4019 5.16699 7.2513 5.16699C6.10071 5.16699 5.16797 6.09973 5.16797 7.25033C5.16797 8.40092 6.10071 9.33366 7.2513 9.33366Z" stroke="white" stroke-width="2" stroke-linecap="round" stroke-linejoin="round"/>
</svg>
