<svg width="161" height="178" viewBox="0 0 161 178" fill="none" xmlns="http://www.w3.org/2000/svg">
<rect x="66" y="18" width="76" height="121" fill="#FFECEC"/>
<path d="M116.425 69.0843C116.933 69.0843 117.42 68.8894 117.81 68.5186C118.571 67.7581 118.571 66.5288 117.81 65.7682C105.516 53.4812 85.5322 53.4812 73.2387 65.7682C72.4777 66.5288 72.4777 67.758 73.2387 68.5186C73.9997 69.2791 75.2296 69.2791 75.9907 68.5186C86.7629 57.7526 104.269 57.7526 115.04 68.5186C115.43 68.8894 115.938 69.0843 116.425 69.0843H116.425Z" fill="#E72D38"/>
<path d="M110.452 75.0515C110.96 75.0515 111.448 74.8567 111.838 74.4858C112.599 73.7253 112.599 72.4961 111.838 71.7355C102.842 62.7447 88.2051 62.7447 79.2075 71.7355C78.4465 72.496 78.4465 73.7253 79.2075 74.4858C79.9684 75.2464 81.1984 75.2464 81.9594 74.4858C89.4335 67.0161 101.592 67.0161 109.067 74.4858C109.457 74.8567 109.965 75.0515 110.453 75.0515H110.452Z" fill="#E72D38"/>
<path d="M105.866 80.4557C106.627 79.6952 106.627 78.466 105.866 77.7054C100.167 72.01 90.8979 72.01 85.1801 77.7054C84.4191 78.4659 84.4191 79.6951 85.1801 80.4557C85.57 80.8454 86.0579 81.0214 86.5655 81.0214C87.0731 81.0214 87.561 80.8265 87.9509 80.4557C92.1268 76.2823 98.938 76.2823 103.114 80.4557C103.875 81.2163 105.104 81.2163 105.866 80.4557H105.866Z" fill="#E72D38"/>
<path d="M92.3623 85.915C92.3623 87.6705 93.7872 89.0748 95.5239 89.0748C97.2803 89.0748 98.6855 87.6507 98.6855 85.915C98.6855 84.1794 97.2605 82.7553 95.5239 82.7553C93.7674 82.7365 92.3623 84.1597 92.3623 85.915Z" fill="#E72D38"/>
<path d="M62.3291 103.741C60.065 99.9375 54.5424 99.9375 52.2792 103.741L30.2063 140.681C27.8847 144.582 30.6942 149.536 35.2422 149.536H79.3654C83.9125 149.536 86.7226 144.582 84.4003 140.681L62.3291 103.741ZM57.2932 143.784C55.6536 143.784 54.3267 142.458 54.3267 140.819C54.3267 139.18 55.6537 137.854 57.2932 137.854C58.9329 137.854 60.2598 139.18 60.2598 140.819C60.2598 142.458 58.9328 143.784 57.2932 143.784ZM60.4162 131.34C60.338 132.998 58.9724 134.305 57.2941 134.305C55.6159 134.305 54.2692 132.999 54.1721 131.34L53.138 114.919C53.0212 112.559 54.9142 110.569 57.2753 110.569C59.6363 110.569 61.5293 112.559 61.4125 114.919L60.4162 131.34Z" fill="#E72D38"/>
<path d="M123.819 28.6138H67.2257C62.9132 28.6138 59.4199 32.105 59.4199 36.415V97.2283C62.0155 97.7939 64.2598 99.3931 65.6649 101.734L67.2264 104.348L67.2255 44.2173H123.819V126.132H80.2435L87.7373 138.692C89.5522 141.754 89.5917 145.421 87.8353 148.503C87.6205 148.874 87.4058 149.205 87.1524 149.537L123.821 149.537C128.134 149.537 131.627 146.046 131.627 141.736L131.628 36.4163C131.628 32.1054 128.134 28.6145 123.822 28.6145L123.819 28.6138ZM109.008 38.3661H82.0381C80.9645 38.3661 80.0867 37.4888 80.0867 36.4158C80.0867 35.3428 80.9645 34.4655 82.0381 34.4655H108.99C110.063 34.4655 110.941 35.3428 110.941 36.4158C110.941 37.4879 110.082 38.3661 109.009 38.3661H109.008ZM95.5223 143.686C92.2826 143.686 89.6681 141.072 89.6681 137.835C89.6681 134.597 92.2835 131.984 95.5223 131.984C98.7621 131.984 101.377 134.598 101.377 137.835C101.377 141.073 98.7621 143.686 95.5223 143.686Z" fill="#E72D38"/>
<line x1="2.5" y1="-2.5" x2="13.4659" y2="-2.5" transform="matrix(-0.708479 0.705732 0.708479 0.705732 153.328 7.00024)" stroke="#E72D38" stroke-width="5" stroke-linecap="round"/>
<line x1="2.5" y1="-2.5" x2="13.4659" y2="-2.5" transform="matrix(0.708479 0.705732 -0.708479 0.705732 139 7.00024)" stroke="#E72D38" stroke-width="5" stroke-linecap="round"/>
<line x1="2.5" y1="-2.5" x2="13.4659" y2="-2.5" transform="matrix(-0.708479 0.705732 0.708479 0.705732 29.3281 86)" stroke="#E72D38" stroke-width="5" stroke-linecap="round"/>
<line x1="2.5" y1="-2.5" x2="13.4659" y2="-2.5" transform="matrix(0.708479 0.705732 -0.708479 0.705732 15 86)" stroke="#E72D38" stroke-width="5" stroke-linecap="round"/>
<path d="M33.5656 13.0094C33.5656 14.9384 31.9931 16.5188 30.0328 16.5188C28.0725 16.5188 26.5 14.9384 26.5 13.0094C26.5 11.0804 28.0725 9.5 30.0328 9.5C31.9931 9.5 33.5656 11.0804 33.5656 13.0094Z" stroke="#E72D38" stroke-width="5"/>
<line x1="139.5" y1="78.5" x2="150.336" y2="78.5" stroke="#313030" stroke-width="5" stroke-linecap="round"/>
<line x1="20.5" y1="161.5" x2="37.3689" y2="161.5" stroke="#313030" stroke-width="5" stroke-linecap="round"/>
<line x1="139.5" y1="161.5" x2="156.369" y2="161.5" stroke="#313030" stroke-width="5" stroke-linecap="round"/>
<line x1="32.5" y1="34.5" x2="39.5656" y2="34.5" stroke="#313030" stroke-width="5" stroke-linecap="round"/>
</svg>
