<svg width="32" height="32" viewBox="0 0 32 32" fill="none" xmlns="http://www.w3.org/2000/svg">
<g filter="url(#filter0_b_49_16958)">
<rect width="32" height="32" rx="10" fill="#FDEAEB"/>
</g>
<path d="M11.8677 8.46705L13.1598 8.0778C13.5862 7.94953 14.0447 7.98065 14.4499 8.16535C14.855 8.35005 15.1791 8.67571 15.3617 9.08159L16.2675 11.0945C16.4247 11.4437 16.4685 11.8334 16.3928 12.2087C16.3171 12.5841 16.1256 12.9263 15.8453 13.1874L14.4665 14.4712C14.2817 14.6465 14.4218 15.3296 15.0968 16.4987C15.7725 17.6685 16.2948 18.1311 16.5356 18.0591L18.342 17.5072C18.7081 17.3953 19.1001 17.4007 19.463 17.5226C19.826 17.6445 20.1416 17.8769 20.3657 18.1871L21.6531 19.97C21.9131 20.3301 22.0335 20.7722 21.9919 21.2142C21.9504 21.6563 21.7496 22.0682 21.427 22.3735L20.4318 23.3153C20.1105 23.6194 19.7143 23.8328 19.2835 23.9338C18.8527 24.0349 18.4029 24.02 17.9798 23.8906C15.8946 23.2527 13.9636 21.3597 12.1606 18.2384C10.3536 15.1124 9.6712 12.4756 10.1468 10.3213C10.2427 9.88726 10.4528 9.4866 10.7553 9.16066C11.0578 8.83472 11.4418 8.59529 11.8677 8.46705Z" fill="#E72D38"/>
<defs>
<filter id="filter0_b_49_16958" x="-6" y="-6" width="44" height="44" filterUnits="userSpaceOnUse" color-interpolation-filters="sRGB">
<feFlood flood-opacity="0" result="BackgroundImageFix"/>
<feGaussianBlur in="BackgroundImageFix" stdDeviation="3"/>
<feComposite in2="SourceAlpha" operator="in" result="effect1_backgroundBlur_49_16958"/>
<feBlend mode="normal" in="SourceGraphic" in2="effect1_backgroundBlur_49_16958" result="shape"/>
</filter>
</defs>
</svg>
