<svg width="10" height="15" viewBox="0 0 10 15" fill="none" xmlns="http://www.w3.org/2000/svg">
<path d="M9.144 2.39C8.352 1.508 6.966 0.932 5.49 0.932C3.384 0.932 1.116 2.03 1.116 4.568C1.116 6.908 2.808 7.646 4.428 8.15C6.048 8.654 7.452 9.068 7.452 10.616C7.452 12.128 6.084 12.794 4.896 12.794C3.726 12.794 2.646 12.182 2.052 11.3L0.666 12.47C1.638 13.694 3.258 14.324 4.86 14.324C7.128 14.324 9.27 13.1 9.27 10.454C9.27 7.916 7.236 7.268 5.526 6.728C4.086 6.26 2.916 5.882 2.916 4.496C2.916 3.056 4.248 2.426 5.4 2.426C6.462 2.426 7.38 2.912 7.884 3.614L9.144 2.39Z" fill="white"/>
</svg>
