<svg width="226" height="136" viewBox="0 0 226 136" fill="none" xmlns="http://www.w3.org/2000/svg">
<path d="M41.6179 127.781C35.5891 124.622 31.2642 125.042 22.7451 116.748C12.592 107.15 1.4407 86.4115 19.9078 59.2276C22.5146 55.295 31.9512 47.9222 43.7472 46.2106C57.7711 45.6842 61.5352 47.6604 61.7028 47.6586C64.4054 43.5326 64.5516 40.0032 68.125 35.546C72.209 30.4508 79.0037 26.3302 88.7017 25.0173C98.3998 23.7043 106.579 29.1487 106.579 29.1487C106.579 29.1487 116.422 9.25114 136.868 6.35439C142.243 5.16923 159.602 6.69815 169.109 14.9124C179.764 24.1192 185.737 41.9865 181.445 59.2312C186.606 59.0188 189.121 60.581 192.241 62.3097C198.87 65.9849 204.795 70.7687 206.92 75.8711C214.087 93.0707 213.288 98.3747 206.92 111.354C200.552 124.333 181.444 127.786 181.444 127.786H47.8385C45.7747 128.073 43.6812 128.071 41.6179 127.781Z" fill="#FFF5F6"/>
<path d="M169.633 29.667H55.6328C50.11 29.667 45.6328 34.1441 45.6328 39.667V113.667C45.6328 119.19 50.11 123.667 55.6328 123.667H169.633C175.156 123.667 179.633 119.19 179.633 113.667V39.667C179.633 34.1441 175.156 29.667 169.633 29.667Z" fill="white"/>
<path d="M114.001 87.9999C114.001 88.2651 113.896 88.5195 113.708 88.707C113.521 88.8945 113.266 88.9999 113.001 88.9999C112.736 88.9999 112.482 88.8945 112.294 88.707C112.107 88.5195 112.001 88.2651 112.001 87.9999C112.001 87.7347 112.107 87.4803 112.294 87.2928C112.482 87.1053 112.736 86.9999 113.001 86.9999C113.266 86.9999 113.521 87.1053 113.708 87.2928C113.896 87.4803 114.001 87.7347 114.001 87.9999ZM112.251 84.7499C112.251 84.9488 112.33 85.1396 112.471 85.2802C112.612 85.4209 112.802 85.4999 113.001 85.4999C113.2 85.4999 113.391 85.4209 113.532 85.2802C113.672 85.1396 113.751 84.9488 113.751 84.7499V78.2499C113.751 78.051 113.672 77.8602 113.532 77.7196C113.391 77.5789 113.2 77.4999 113.001 77.4999C112.802 77.4999 112.612 77.5789 112.471 77.7196C112.33 77.8602 112.251 78.051 112.251 78.2499V84.7499ZM110.593 72.1699C111.639 70.2759 114.363 70.2749 115.409 72.1699L124.659 88.9199C125.671 90.7529 124.345 92.9999 122.252 92.9999H103.758C101.665 92.9999 100.338 90.7539 101.35 88.9209L110.593 72.1699ZM114.095 72.8949C113.987 72.6994 113.829 72.5364 113.636 72.4229C113.444 72.3095 113.225 72.2496 113.001 72.2496C112.778 72.2496 112.559 72.3095 112.366 72.4229C112.174 72.5364 112.015 72.6994 111.907 72.8949L102.663 89.6459C102.558 89.8363 102.505 90.0507 102.508 90.2681C102.511 90.4855 102.571 90.6984 102.681 90.8856C102.792 91.0728 102.949 91.2279 103.138 91.3357C103.327 91.4434 103.541 91.5 103.758 91.4999H122.251C122.469 91.4998 122.682 91.4431 122.871 91.3353C123.06 91.2275 123.217 91.0723 123.327 90.8851C123.438 90.698 123.498 90.4852 123.501 90.2679C123.504 90.0506 123.45 89.8362 123.345 89.6459L114.095 72.8949Z" fill="#E72D38"/>
<path d="M169.633 30.167H55.6328C50.3861 30.167 46.1328 34.4203 46.1328 39.667V113.667C46.1328 118.914 50.3861 123.167 55.6328 123.167H169.633C174.88 123.167 179.133 118.914 179.133 113.667V39.667C179.133 34.4203 174.88 30.167 169.633 30.167Z" stroke="#E72D38" stroke-width="2"/>
<path d="M45.6328 51.667H179.633" stroke="#E72D38" stroke-width="2"/>
<path d="M57.1328 44.667C59.0658 44.667 60.6328 42.8761 60.6328 40.667C60.6328 38.4579 59.0658 36.667 57.1328 36.667C55.1998 36.667 53.6328 38.4579 53.6328 40.667C53.6328 42.8761 55.1998 44.667 57.1328 44.667Z" fill="#FFD8D8"/>
<path d="M69.6328 44.667C71.842 44.667 73.6328 42.8761 73.6328 40.667C73.6328 38.4579 71.842 36.667 69.6328 36.667C67.4237 36.667 65.6328 38.4579 65.6328 40.667C65.6328 42.8761 67.4237 44.667 69.6328 44.667Z" fill="#FFD8D8"/>
<path d="M82.1328 43.667C84.0658 43.667 85.6328 42.1 85.6328 40.167C85.6328 38.234 84.0658 36.667 82.1328 36.667C80.1998 36.667 78.6328 38.234 78.6328 40.167C78.6328 42.1 80.1998 43.667 82.1328 43.667Z" fill="#FFD8D8"/>
</svg>
